<svg id="sw-js-blob-svg" viewBox="0 0 100 100" xmlns="http://www.w3.org/2000/svg">
    <defs>
        <linearGradient id="sw-gradient" x1="0" x2="1" y1="1" y2="0">
            <stop id="stop1" stop-color="rgba(248, 117, 55, 1)" offset="0%"></stop>
            <stop id="stop2" stop-color="rgba(251, 168, 31, 1)" offset="100%"></stop>
        </linearGradient>
    </defs>
    <mask id="mask1" mask-type="alpha">
        <path fill="url(#sw-gradient)"
            d="M20.7,-25C28.5,-18.2,37.5,-13.2,37.9,-7.2C38.3,-1.2,30.1,5.7,24.1,12C18.2,18.2,14.4,23.8,9.3,25.7C4.2,27.7,-2.3,26,-9.2,24C-16.1,22.1,-23.4,19.9,-30,14.4C-36.6,9,-42.5,0.2,-40.7,-6.6C-38.8,-13.5,-29.2,-18.4,-21.2,-25.2C-13.1,-32,-6.5,-40.6,0,-40.6C6.5,-40.5,13,-31.9,20.7,-25Z"
            width="100%" height="100%" transform="translate(50 50)" stroke-width="0"
            style="transition: all 0.3s ease 0s;"></path>
    </mask>
    <g mask="url(#mask1)">
        <path fill="url(#sw-gradient)"
            d="M20.7,-25C28.5,-18.2,37.5,-13.2,37.9,-7.2C38.3,-1.2,30.1,5.7,24.1,12C18.2,18.2,14.4,23.8,9.3,25.7C4.2,27.7,-2.3,26,-9.2,24C-16.1,22.1,-23.4,19.9,-30,14.4C-36.6,9,-42.5,0.2,-40.7,-6.6C-38.8,-13.5,-29.2,-18.4,-21.2,-25.2C-13.1,-32,-6.5,-40.6,0,-40.6C6.5,-40.5,13,-31.9,20.7,-25Z"
            width="100%" height="100%" transform="translate(50 50)" stroke-width="0"
            style="transition: all 0.3s ease 0s;"></path>
        <image class="newImage" x='12' y='18' href="assets/img/perfil.png" />
        <g>
</svg>